<?xml version="1.0" standalone="no"?>
<!DOCTYPE svg PUBLIC "-//W3C//DTD SVG 20010904//EN"
 "http://www.w3.org/TR/2001/REC-SVG-20010904/DTD/svg10.dtd">
<svg version="1.0" xmlns="http://www.w3.org/2000/svg"
 width="256.000000pt" height="256.000000pt" viewBox="0 0 256.000000 256.000000"
 preserveAspectRatio="xMidYMid meet">
<metadata>
Created by potrace 1.14, written by Peter Selinger 2001-2017
</metadata>
<g transform="translate(0.000000,256.000000) scale(0.100000,-0.100000)"
fill="#000000" stroke="none">
<path d="M0 1280 l0 -1280 1280 0 1280 0 0 1280 0 1280 -1280 0 -1280 0 0
-1280z m1522 1000 c98 -21 209 -65 294 -116 64 -39 154 -105 154 -114 0 -3
-44 -50 -99 -104 l-98 -98 -49 35 c-67 47 -136 81 -224 109 -64 19 -95 23
-205 22 -112 -1 -141 -5 -210 -27 -44 -15 -109 -43 -145 -64 -89 -52 -217
-181 -265 -266 -115 -208 -125 -453 -26 -662 124 -263 362 -415 651 -415 165
0 305 44 431 136 l45 33 99 -99 c113 -113 113 -102 2 -178 -191 -131 -410
-193 -635 -179 -291 19 -541 149 -725 377 -124 154 -199 342 -215 537 -25 309
77 590 291 801 251 249 581 345 929 272z m587 -380 c233 -310 265 -735 80
-1078 -40 -75 -108 -170 -151 -209 l-24 -22 -349 349 c-193 193 -353 350 -357
350 -5 0 -8 -149 -8 -331 l0 -332 -62 7 c-70 8 -159 31 -200 52 l-28 15 0 597
0 598 33 16 32 16 448 -446 c354 -354 449 -444 457 -432 20 32 41 157 41 251
0 115 -19 204 -66 304 -32 68 -47 91 -109 170 l-29 36 98 99 c115 115 99 116
194 -10z"/>
</g>
</svg>
